<svg width="557" height="332" viewBox="0 0 557 332" fill="none" xmlns="http://www.w3.org/2000/svg">
<g opacity="0.4">
<path d="M8.00435 23.8289C1.93645 36.735 -1.43461 49.6412 0.588025 51.7922C1.93645 53.9432 18.7917 58.2453 38.3439 60.3963C72.0544 64.6983 74.0771 65.7739 157.005 193.76C235.214 314.217 249.724 342.748 256.748 326.022C247.426 341.509 263.008 317.209 264.356 320.436C266.379 322.587 291.847 266.895 317.467 226.025L363.988 150.739H418.599C467.142 150.739 475.233 147.513 488.043 126.003C496.133 112.021 502.876 98.0392 502.876 93.7372C502.876 89.4351 468.491 86.2086 426.69 86.2086H351.178L296.567 165.797L241.956 246.46L165.096 122.776L88.2355 0.167798H53.1765C24.8596 0.167798 16.0949 4.46966 8.00435 23.8289Z" fill="white"/>
<path d="M434.78 10.9228C302.635 17.3759 317.467 8.77179 250.72 108.794C227.797 143.211 219.032 163.646 221.729 176.552C231.842 217.421 247.349 207.742 292.522 136.758L337.694 65.774L432.083 58.2454C519.057 51.7923 527.821 49.6413 543.328 25.98C552.093 11.9983 558.161 1.24322 556.812 2.31873C554.79 3.39424 500.179 7.69629 434.78 10.9228Z" fill="white"/>
</g>
</svg>
