<svg width="98" height="105" viewBox="0 0 98 105" fill="none" xmlns="http://www.w3.org/2000/svg">
<path d="M91.6137 54.794L88.1574 53.8753L82.3651 43.0956C82.2314 42.8467 82.0382 42.6399 81.805 42.496C81.5719 42.3521 81.3071 42.2763 81.0376 42.2763H70.3345V26.0162C70.3345 25.5849 70.1734 25.1713 69.8867 24.8664C69.5999 24.5614 69.211 24.3901 68.8055 24.3901H13.7611C13.3556 24.3901 12.9667 24.5614 12.6799 24.8664C12.3932 25.1713 12.2321 25.5849 12.2321 26.0162V37.3983H9.17406C8.76854 37.3983 8.37964 37.5696 8.09289 37.8745C7.80615 38.1795 7.64505 38.593 7.64505 39.0243C7.64505 39.4555 7.80615 39.8691 8.09289 40.1741C8.37964 40.479 8.76854 40.6503 9.17406 40.6503H12.2321V43.9023H4.58703C4.18151 43.9023 3.7926 44.0736 3.50586 44.3786C3.21911 44.6835 3.05802 45.0971 3.05802 45.5284C3.05802 45.9596 3.21911 46.3732 3.50586 46.6781C3.7926 46.9831 4.18151 47.1544 4.58703 47.1544H12.2321V50.4064H9.17406C8.76854 50.4064 8.37964 50.5777 8.09289 50.8826C7.80615 51.1876 7.64505 51.6012 7.64505 52.0324C7.64505 52.4637 7.80615 52.8772 8.09289 53.1822C8.37964 53.4871 8.76854 53.6584 9.17406 53.6584H12.2321V68.2926C12.2323 68.5421 12.2868 68.7883 12.3913 69.0117C12.3919 69.0144 12.3927 69.0172 12.3936 69.0198L15.4516 75.5239C15.5786 75.794 15.7738 76.0211 16.0153 76.1798C16.2569 76.3386 16.5352 76.4227 16.8191 76.4227H20.5174C21.112 77.8724 22.0914 79.1062 23.3357 79.9727C24.5799 80.8391 26.0349 81.3007 27.5222 81.3007C29.0095 81.3007 30.4644 80.8391 31.7087 79.9727C32.9529 79.1062 33.9324 77.8724 34.527 76.4227H74.0328C74.6273 77.8724 75.6068 79.1062 76.8511 79.9727C78.0953 80.8391 79.5503 81.3007 81.0376 81.3007C82.5248 81.3007 83.9798 80.8391 85.2241 79.9727C86.4683 79.1062 87.4478 77.8724 88.0423 76.4227H90.2116C90.4124 76.4227 90.6112 76.3806 90.7968 76.2989C90.9823 76.2172 91.1508 76.0974 91.2928 75.9464L94.3508 72.6944C94.4928 72.5434 94.6055 72.3642 94.6823 72.1669C94.7591 71.9696 94.7987 71.7581 94.7987 71.5446V59.1322C94.7997 58.1347 94.4866 57.1655 93.9094 56.3793C93.3321 55.593 92.524 55.0349 91.6137 54.794ZM76.4505 45.5284H80.1502L84.5187 53.6584H76.4505V45.5284ZM19.8771 50.4064H15.2901V47.1544H19.8771C20.2827 47.1544 20.6716 46.9831 20.9583 46.6781C21.2451 46.3732 21.4061 45.9596 21.4061 45.5284C21.4061 45.0971 21.2451 44.6835 20.9583 44.3786C20.6716 44.0736 20.2827 43.9023 19.8771 43.9023H15.2901V40.6503H18.3481C18.7536 40.6503 19.1426 40.479 19.4293 40.1741C19.716 39.8691 19.8771 39.4555 19.8771 39.0243C19.8771 38.593 19.716 38.1795 19.4293 37.8745C19.1426 37.5696 18.7536 37.3983 18.3481 37.3983H15.2901V27.6422H67.2765V66.6666H32.1043C30.7828 65.611 29.1749 65.0403 27.5222 65.0403C25.8695 65.0403 24.2615 65.611 22.9401 66.6666H15.2901V53.6584H19.8771C20.2827 53.6584 20.6716 53.4871 20.9583 53.1822C21.2451 52.8772 21.4061 52.4637 21.4061 52.0324C21.4061 51.6012 21.2451 51.1876 20.9583 50.8826C20.6716 50.5777 20.2827 50.4064 19.8771 50.4064ZM17.764 73.1706L16.235 69.9186H20.5174C20.0945 70.9437 19.8764 72.0512 19.8771 73.1706H17.764ZM27.5222 78.0487C26.615 78.0487 25.7281 77.7626 24.9738 77.2266C24.2194 76.6906 23.6315 75.9287 23.2843 75.0374C22.9371 74.146 22.8463 73.1652 23.0233 72.219C23.2003 71.2727 23.6372 70.4035 24.2787 69.7213C24.9202 69.0391 25.7375 68.5745 26.6273 68.3863C27.5171 68.1981 28.4394 68.2947 29.2776 68.6639C30.1157 69.0331 30.8321 69.6583 31.3362 70.4605C31.8402 71.2627 32.1092 72.2058 32.1092 73.1706C32.1078 74.4639 31.6241 75.7038 30.7641 76.6183C29.9042 77.5328 28.7383 78.0472 27.5222 78.0487ZM67.2765 73.1706H35.1672C35.1679 72.0512 34.9499 70.9437 34.527 69.9186H67.2765V73.1706ZM70.3345 73.1706V45.5284H73.3925V55.2845C73.3925 55.7157 73.5536 56.1293 73.8403 56.4342C74.1271 56.7392 74.516 56.9105 74.9215 56.9105H86.9653L90.872 57.9491C91.1202 58.0147 91.3407 58.1669 91.4981 58.3814C91.6556 58.5958 91.7409 58.8602 91.7406 59.1322V60.1625H88.6826C88.2771 60.1625 87.8882 60.3338 87.6014 60.6387C87.3147 60.9437 87.1536 61.3573 87.1536 61.7885C87.1536 62.2198 87.3147 62.6333 87.6014 62.9383C87.8882 63.2432 88.2771 63.4145 88.6826 63.4145H91.7406V66.6666H85.6196C84.4842 65.7605 83.1339 65.2087 81.72 65.0731C80.3062 64.9375 78.8848 65.2234 77.6153 65.8987C76.3457 66.574 75.2781 67.6121 74.5322 68.8966C73.7864 70.181 73.3917 71.661 73.3925 73.1706H70.3345ZM81.0376 78.0487C80.1303 78.0487 79.2435 77.7626 78.4891 77.2266C77.7348 76.6906 77.1469 75.9287 76.7997 75.0374C76.4525 74.146 76.3617 73.1652 76.5387 72.219C76.7157 71.2727 77.1525 70.4035 77.794 69.7213C78.4355 69.0391 79.2529 68.5745 80.1427 68.3863C81.0325 68.1981 81.9548 68.2947 82.7929 68.6639C83.6311 69.0331 84.3475 69.6583 84.8515 70.4605C85.3556 71.2627 85.6246 72.2058 85.6246 73.1706C85.6232 74.4639 85.1394 75.7038 84.2795 76.6183C83.4196 77.5328 82.2537 78.0472 81.0376 78.0487ZM89.5784 73.1706H88.6826C88.6833 72.0512 88.4653 70.9437 88.0423 69.9186H91.7406V70.8712L89.5784 73.1706Z" fill="#031C3D"/>
<path d="M27.5222 39.0241H31.1643L33.7508 44.5253L36.6963 53.9225V57.8619C36.6972 58.8326 37.0358 59.7685 37.6468 60.4897C38.2577 61.2108 39.0979 61.6661 40.0056 61.768C40.219 62.2582 40.5593 62.6735 40.9868 62.9653C41.4142 63.2571 41.911 63.4132 42.4189 63.4155C42.9268 63.4177 43.4248 63.2659 43.8545 62.9779C44.2841 62.6899 44.6277 62.2776 44.8449 61.7894H48.4247C48.6679 62.3342 49.0676 62.7828 49.5662 63.0704C50.0647 63.358 50.6362 63.4697 51.1983 63.3893C51.7604 63.309 52.284 63.0408 52.6934 62.6235C53.1029 62.2062 53.3771 61.6613 53.4764 61.0675C53.5757 60.4737 53.4951 59.8617 53.246 59.3198C52.997 58.7779 52.5925 58.3342 52.091 58.0526C51.5894 57.7711 51.0167 57.6664 50.4555 57.7535C49.8943 57.8406 49.3736 58.1151 48.9687 58.5373H44.301C43.8015 58.0162 43.1297 57.7243 42.43 57.7243C41.7303 57.7243 41.0586 58.0162 40.5591 58.5373H40.3886C40.2203 58.5371 40.0589 58.4658 39.94 58.3392C39.821 58.2125 39.7542 58.0408 39.7543 57.8617V55.2843H53.5154C53.8363 55.2843 54.1491 55.177 54.4095 54.9774C54.6698 54.7779 54.8645 54.4963 54.966 54.1725L58.024 44.4164C58.025 44.4132 58.0256 44.4099 58.0265 44.4066C58.0619 44.2911 58.085 44.1718 58.0953 44.0508C58.0971 44.0304 58.1024 35.7721 58.1024 35.7721C58.1024 35.4701 58.0233 35.1742 57.874 34.9173C57.7248 34.6605 57.5112 34.4529 57.2572 34.3178L54.1992 32.6918C53.9869 32.5789 53.7528 32.5201 53.5154 32.5201C53.278 32.5201 53.0438 32.5789 52.8315 32.6918L49.7735 34.3178C49.5195 34.4529 49.306 34.6605 49.1567 34.9173C49.0074 35.1742 48.9283 35.4701 48.9283 35.7721H44.3413C44.3413 34.4784 43.858 33.2376 42.9978 32.3228C42.1376 31.408 40.9708 30.894 39.7543 30.894C38.5377 30.894 37.371 31.408 36.5107 32.3228C35.6505 33.2376 35.1672 34.4784 35.1672 35.7721V40.2664L33.4767 36.6709C33.3497 36.4008 33.1545 36.1737 32.913 36.0149C32.6715 35.8562 32.3932 35.7721 32.1092 35.7721H27.5222C27.1167 35.7721 26.7278 35.9434 26.441 36.2483C26.1543 36.5533 25.9932 36.9669 25.9932 37.3981C25.9932 37.8294 26.1543 38.2429 26.441 38.5479C26.7278 38.8528 27.1167 39.0241 27.5222 39.0241ZM44.3413 45.5282H47.3993V52.0323H44.3413V45.5282ZM41.2833 52.0323H39.3273L37.2887 45.5282H41.2833V52.0323ZM52.4133 52.0323H50.4573V45.5282H54.4519L52.4133 52.0323ZM51.9864 36.777L53.5154 35.964L55.0444 36.777V42.2762H51.9864V36.777ZM48.9283 39.0241V42.2762H44.3413V39.0241H48.9283ZM38.2253 35.7721C38.2253 35.3408 38.3864 34.9273 38.6731 34.6223C38.9598 34.3174 39.3488 34.1461 39.7543 34.1461C40.1598 34.1461 40.5487 34.3174 40.8354 34.6223C41.1222 34.9273 41.2833 35.3408 41.2833 35.7721V42.2762H38.2253V35.7721Z" fill="#031C3D"/>
<path d="M79.5085 61.7886C79.5085 61.3574 79.3474 60.9438 79.0607 60.6388C78.774 60.3339 78.385 60.1626 77.9795 60.1626H74.9215C74.516 60.1626 74.1271 60.3339 73.8403 60.6388C73.5536 60.9438 73.3925 61.3574 73.3925 61.7886C73.3925 62.2198 73.5536 62.6334 73.8403 62.9383C74.1271 63.2433 74.516 63.4146 74.9215 63.4146H77.9795C78.385 63.4146 78.774 63.2433 79.0607 62.9383C79.3474 62.6334 79.5085 62.2198 79.5085 61.7886Z" fill="#031C3D"/>
</svg>
