<svg width="98" height="105" viewBox="0 0 98 105" fill="none" xmlns="http://www.w3.org/2000/svg">
<g clip-path="url(#clip0)">
<path d="M77.7987 78.3008C76.9311 77.6609 75.7402 77.891 75.1391 78.8136C74.5565 79.708 73.8963 80.5776 73.176 81.3985C72.6934 81.9492 72.0294 82.613 71.3069 83.2667C70.503 83.9944 70.4059 85.2772 71.0899 86.1323C71.468 86.6047 72.0057 86.8474 72.5466 86.8474C72.9844 86.8474 73.4246 86.6882 73.7845 86.3626C74.6274 85.5995 75.3841 84.8418 75.9717 84.1708C76.8168 83.2078 77.594 82.1843 78.2813 81.129C78.8824 80.2064 78.6664 78.9401 77.7987 78.3008Z" fill="#031C3D"/>
<path d="M69.4718 87.4145C69.0234 86.3982 67.8858 85.9608 66.9298 86.4375L66.8699 86.4661C65.9041 86.9192 65.4668 88.1192 65.8933 89.1463C66.2086 89.9065 66.9085 90.3588 67.6427 90.3588C67.9005 90.3588 68.1626 90.3029 68.4133 90.1852C68.46 90.1634 68.5062 90.1411 68.5527 90.1181C69.5083 89.6413 69.9198 88.4313 69.4718 87.4145Z" fill="#031C3D"/>
<path d="M92.1499 5.28516H5.71008C2.56137 5.28516 0 8.00947 0 11.3576V68.322C0 71.6699 2.56137 74.394 5.71008 74.394H45.9599C47.6661 82.0712 51.5245 87.5084 54.8967 90.9919C59.8187 96.0771 65.4609 98.7852 67.6416 98.7852C69.822 98.7852 75.4642 96.0773 80.3865 90.9921C83.7586 87.5084 87.6172 82.0712 89.3233 74.3942H92.1499C95.2984 74.3942 97.86 71.6701 97.86 68.3222V11.3576C97.86 8.00947 95.2984 5.28516 92.1499 5.28516ZM86.3919 66.0639C86.3921 76.7734 81.7435 83.8772 77.8437 87.9507C73.2177 92.7828 68.4724 94.6624 67.6416 94.7195C66.8105 94.6624 62.0651 92.7831 57.4391 87.9507C53.5396 83.8772 48.8911 76.7734 48.8911 66.0639V56.0541C55.4718 54.0303 61.6293 51.2604 67.6422 47.6204C73.5195 51.1679 79.953 54.061 86.3919 56.0529V66.0639ZM94.0374 68.322C94.0374 69.4285 93.1904 70.3288 92.1499 70.3288H89.988C90.1344 68.9667 90.2147 67.5463 90.2147 66.0639V54.513C90.2147 53.5955 89.6367 52.792 88.8043 52.5515C81.8637 50.5472 74.8796 47.4239 68.607 43.5194C68.0107 43.1483 67.2725 43.1487 66.6758 43.5198C60.2255 47.5351 53.619 50.489 46.4788 52.5515C45.6464 52.7922 45.0685 53.5957 45.0685 54.513V66.0639C45.0685 67.5463 45.1485 68.9667 45.2951 70.3288H5.71008C4.66937 70.3288 3.82265 69.4283 3.82265 68.322V33.7413H94.0374V68.322ZM94.0374 29.6763H3.82265V21.5463H94.0374V29.6763ZM94.0374 17.4808H3.82265V11.3576C3.82265 10.2508 4.66937 9.35038 5.71008 9.35038H92.1499C93.1904 9.35038 94.0374 10.2508 94.0374 11.3576V17.4808Z" fill="#031C3D"/>
<path d="M22.9354 47.9707C21.783 47.9707 20.6452 48.2185 19.5921 48.6909C18.5632 48.2272 17.4325 47.9707 16.2467 47.9707C11.5041 47.9707 7.64551 52.0737 7.64551 57.1171C7.64551 62.1604 11.5039 66.2639 16.2467 66.2639C17.4325 66.2639 18.5632 66.0074 19.5919 65.5437C20.6452 66.0161 21.783 66.2639 22.9354 66.2639C27.6781 66.2639 31.5367 62.1604 31.5367 57.1171C31.5367 52.0737 27.6781 47.9707 22.9354 47.9707ZM16.2467 62.1986C13.6117 62.1986 11.4682 59.9193 11.4682 57.1171C11.4682 54.3151 13.6117 52.0359 16.2467 52.0359C18.8813 52.0359 21.0248 54.3151 21.0248 57.1171C21.0248 59.919 18.8813 62.1986 16.2467 62.1986ZM23.4092 62.1738C24.3171 60.7244 24.8475 58.9855 24.8475 57.1173C24.8475 55.2491 24.3171 53.5106 23.4094 52.0611C25.8224 52.3148 27.7139 54.4857 27.7139 57.1173C27.7139 59.7489 25.8224 61.92 23.4092 62.1738Z" fill="#031C3D"/>
<path d="M19.3878 38.8232H9.55647C8.50084 38.8232 7.64514 39.7332 7.64514 40.8559C7.64514 41.9783 8.50084 42.8885 9.55647 42.8885H19.3878C20.4434 42.8885 21.2991 41.9781 21.2991 40.8559C21.2991 39.7332 20.4434 38.8232 19.3878 38.8232Z" fill="#031C3D"/>
<path d="M25.0376 38.8232H24.947C23.8914 38.8232 23.0357 39.7332 23.0357 40.8559C23.0357 41.9783 23.8914 42.8885 24.947 42.8885H25.0376C26.0931 42.8885 26.949 41.9781 26.949 40.8559C26.949 39.7332 26.0931 38.8232 25.0376 38.8232Z" fill="#031C3D"/>
<path d="M78.1332 61.3906C77.3872 60.5973 76.1771 60.5968 75.4304 61.3904L65.2092 72.2594L59.8531 66.563C59.1065 65.7699 57.8963 65.7695 57.1499 66.563C56.4035 67.3569 56.4033 68.644 57.1499 69.4377L63.8577 76.5714C64.231 76.9684 64.7201 77.167 65.2092 77.167C65.6983 77.167 66.1876 76.9684 66.5605 76.5714L78.133 64.2653C78.8796 63.4718 78.8796 62.1847 78.1332 61.3906Z" fill="#031C3D"/>
</g>
<defs>
<clipPath id="clip0">
<rect width="97.86" height="104.07" fill="white"/>
</clipPath>
</defs>
</svg>
