<svg width="66" height="66" viewBox="0 0 66 66" fill="none" xmlns="http://www.w3.org/2000/svg">
<path d="M55.2722 58.4031V64.9001C55.2722 65.5075 54.7797 66 54.1723 66C53.5649 66 53.0725 65.5075 53.0725 64.9001V58.4031C53.0725 53.3445 48.9789 49.2507 43.9199 49.2508C41.5262 49.2508 39.3544 48.0314 38.11 45.9887C37.7941 45.4699 37.9584 44.7931 38.4772 44.4772C38.996 44.1611 39.6726 44.3255 39.9887 44.8444C40.8304 46.2262 42.2999 47.0511 43.9199 47.0511C50.1941 47.0508 55.2722 52.1283 55.2722 58.4031ZM36.0789 47.3781C36.2082 47.9716 35.8319 48.5575 35.2384 48.6869C32.3439 49.3175 29.4 48.6862 27.0561 47.0863C24.7356 49.573 21.6701 49.2508 22.0804 49.2508C17.0218 49.2507 12.9279 53.3441 12.9279 58.4031V64.9001C12.9279 65.5075 12.4354 66 11.828 66C11.2206 66 10.7281 65.5075 10.7281 64.9001V58.4031C10.7281 52.129 15.8052 47.0511 22.0802 47.0511C24.6184 47.0511 26.6761 45.0061 26.6761 42.4672V42.1775C21.8753 39.882 18.5056 35.0582 18.3002 29.4408C16.3246 28.9658 14.8526 27.1975 14.8526 25.0936V19.3918C14.7925 16.6009 15.2069 9.61094 20.3035 4.69816C26.5967 -1.36837 36.689 -0.98301 44.11 2.58946C44.8333 2.93798 44.9431 3.9152 44.3425 4.42127C48.1019 5.33827 51.3438 7.64934 53.4265 10.9569C53.534 11.1272 53.7309 11.3946 53.6794 11.8212C53.6475 12.0867 53.5685 12.3114 53.3639 12.519C52.0235 13.8784 51.2853 15.6798 51.2853 17.5915V25.0939C51.2853 25.7013 50.7929 26.1937 50.1855 26.1937C49.5781 26.1937 49.0856 25.7013 49.0856 25.0939V17.5915C49.0856 15.3867 49.8389 13.2939 51.2224 11.6128C49.1137 8.59701 45.8237 6.65741 42.1029 6.25899L40.1698 6.05194C39.0394 5.93096 38.8176 4.3737 39.8681 3.94132L40.7473 3.57933C29.297 -0.41246 17.0522 4.02284 17.0522 19.3799V25.0936C17.0522 25.9663 17.5548 26.7248 18.2895 27.1058V19.9756C18.2895 15.7304 21.7433 12.2766 25.9885 12.2766H40.0117C44.2568 12.2766 47.7107 15.7301 47.7107 19.9752V28.9806C47.7107 38.5458 38.3635 45.8112 28.8523 43.0111C28.7904 43.7958 28.595 44.5531 28.2768 45.257C30.127 46.5276 32.4635 47.0401 34.77 46.5375C35.3635 46.4083 35.9495 46.7845 36.0789 47.3781ZM33.0001 41.4079C39.8987 41.4079 45.511 35.7956 45.511 28.897V19.9752C45.511 16.9431 43.044 14.4763 40.0117 14.4763H25.9885C22.9562 14.4763 20.4892 16.9433 20.4892 19.9756V28.897C20.4892 35.7956 26.1015 41.4079 33.0001 41.4079ZM44.1361 60.3632H40.8366C40.2292 60.3632 39.7367 60.8557 39.7367 61.4631C39.7367 62.0705 40.2292 62.5629 40.8366 62.5629H44.1361C44.7435 62.5629 45.236 62.0705 45.236 61.4631C45.236 60.8557 44.7435 60.3632 44.1361 60.3632Z" fill="white"/>
</svg>
