<svg width="34" height="34" viewBox="0 0 34 34" fill="none" xmlns="http://www.w3.org/2000/svg">
<g clip-path="url(#clip0)">
<path d="M11.5232 21.7199H11.5247C11.526 21.7199 11.5273 21.7197 11.5285 21.7197H29.1331C29.5665 21.7197 29.9476 21.4322 30.0667 21.0154L33.9506 7.42154C34.0343 7.12847 33.9757 6.81341 33.7923 6.57015C33.6088 6.3269 33.3218 6.18378 33.0171 6.18378H9.28386L8.58975 3.06016C8.49088 2.61588 8.09692 2.2998 7.64177 2.2998H1.81581C1.27949 2.2998 0.844818 2.73448 0.844818 3.2708C0.844818 3.80712 1.27949 4.24179 1.81581 4.24179H6.86295C6.98584 4.79531 10.1846 19.1898 10.3686 20.0179C9.33671 20.4665 8.61276 21.4954 8.61276 22.6907C8.61276 24.2968 9.91956 25.6036 11.5257 25.6036H29.1331C29.6694 25.6036 30.1041 25.169 30.1041 24.6327C30.1041 24.0963 29.6694 23.6617 29.1331 23.6617H11.5257C10.9904 23.6617 10.5548 23.226 10.5548 22.6907C10.5548 22.1561 10.9889 21.7212 11.5232 21.7199ZM31.7297 8.12576L28.4005 19.7777H12.3046L9.71525 8.12576H31.7297Z" fill="white"/>
<path d="M10.5547 28.5165C10.5547 30.1227 11.8615 31.4295 13.4677 31.4295C15.0739 31.4295 16.3807 30.1227 16.3807 28.5165C16.3807 26.9103 15.0739 25.6035 13.4677 25.6035C11.8615 25.6035 10.5547 26.9103 10.5547 28.5165ZM13.4677 27.5455C14.003 27.5455 14.4387 27.9812 14.4387 28.5165C14.4387 29.0518 14.003 29.4875 13.4677 29.4875C12.9324 29.4875 12.4967 29.0518 12.4967 28.5165C12.4967 27.9812 12.9324 27.5455 13.4677 27.5455Z" fill="white"/>
<path d="M24.2781 28.5165C24.2781 30.1227 25.5849 31.4295 27.1911 31.4295C28.7973 31.4295 30.1041 30.1227 30.1041 28.5165C30.1041 26.9103 28.7973 25.6035 27.1911 25.6035C25.5849 25.6035 24.2781 26.9103 24.2781 28.5165ZM27.1911 27.5455C27.7264 27.5455 28.1621 27.9812 28.1621 28.5165C28.1621 29.0518 27.7264 29.4875 27.1911 29.4875C26.6558 29.4875 26.2201 29.0518 26.2201 28.5165C26.2201 27.9812 26.6558 27.5455 27.1911 27.5455Z" fill="white"/>
</g>
<defs>
<clipPath id="clip0">
<rect width="33.1432" height="33.1432" fill="white" transform="translate(0.844818 0.292969)"/>
</clipPath>
</defs>
</svg>
