<svg width="98" height="105" viewBox="0 0 98 105" fill="none" xmlns="http://www.w3.org/2000/svg">
<g clip-path="url(#clip0)">
<path d="M80.1924 76.6291C84.0192 80.6985 84.0198 87.2855 80.1924 91.3556L77.8336 93.8641C77.1963 94.5418 76.163 94.5421 75.5257 93.8641C74.8885 93.1862 74.8883 92.0873 75.5257 91.4096L77.8846 88.9011C80.4358 86.1882 80.4362 81.7969 77.8846 79.0834L68.7971 69.419C66.2516 66.7124 62.1103 66.7124 59.5652 69.419L55.7666 73.4587C52.6839 76.7369 47.6944 76.7373 44.6114 73.4587L27.7824 55.5618C24.6998 52.2836 24.6994 46.9774 27.7824 43.6987L31.581 39.659C34.1263 36.9522 34.1263 32.5481 31.581 29.8413L22.4934 20.1772C19.9422 17.4641 15.8128 17.4638 13.2615 20.1772L9.94364 23.7053C1.01447 33.2013 1.01365 48.5704 9.94364 58.0673L42.2552 92.4292C48.6715 99.2525 58.2796 101.393 66.7345 97.8832C67.5741 97.5346 68.5203 97.9758 68.8481 98.8685C69.1759 99.7615 68.761 100.768 67.9215 101.116C58.25 105.132 47.2719 102.673 39.9474 94.8835L7.63561 60.5218C-2.54529 49.6948 -2.54529 32.078 7.63561 21.251L10.9534 17.7229C14.78 13.6533 20.974 13.6526 24.8012 17.7229L33.8889 27.387C37.7067 31.4471 37.7067 38.0534 33.8889 42.1135L30.0902 46.1532C28.2832 48.0749 28.283 51.1854 30.0902 53.1075L46.9192 71.0044C48.7219 72.9218 51.6554 72.9218 53.4585 71.0044L57.2572 66.9647C61.0748 62.9049 67.2871 62.9047 71.1049 66.9647L80.1924 76.6291ZM89.7001 1.04932H48.9006C44.4012 1.04932 40.7407 4.94214 40.7407 9.72702V27.0824C40.7407 31.8673 44.4012 35.7601 48.9006 35.7601H50.5326V41.4006C50.5326 42.3608 51.2656 43.1362 52.1646 43.1362C52.7872 43.1362 51.9587 43.5532 64.609 35.5143C65.3828 35.0228 65.6351 33.9571 65.1729 33.1343C64.7106 32.3114 63.7086 32.043 62.9348 32.5346L53.7966 38.3418V34.0246C53.7966 33.0661 53.0658 32.2891 52.1646 32.2891H48.9006C46.2011 32.2891 44.0047 29.9532 44.0047 27.0824V9.72702C44.0047 6.85622 46.2011 4.5204 48.9006 4.5204H89.7001C92.3996 4.5204 94.596 6.85622 94.596 9.72702V27.0824C94.596 29.9532 92.3996 32.2891 89.7001 32.2891H72.7004C71.7991 32.2891 71.0684 33.0661 71.0684 34.0246C71.0684 34.9831 71.7991 35.7601 72.7004 35.7601H89.7001C94.1995 35.7601 97.86 31.8673 97.86 27.0824V9.72702C97.86 4.94214 94.1995 1.04932 89.7001 1.04932V1.04932ZM53.5926 20.1403C56.0672 20.1403 58.0805 17.9993 58.0805 15.3675C58.0805 12.7358 56.0672 10.5948 53.5926 10.5948H50.7366C49.8353 10.5948 49.1046 11.3719 49.1046 12.3303C49.1046 13.2888 49.8353 14.0659 50.7366 14.0659H53.5926C54.2676 14.0659 54.8165 14.6497 54.8165 15.3675C54.8165 16.0854 54.2676 16.6692 53.5926 16.6692C51.1179 16.6692 49.1046 18.8102 49.1046 21.4419V24.4791C49.1046 25.4376 49.8353 26.2147 50.7366 26.2147H56.4485C57.3498 26.2147 58.0805 25.4376 58.0805 24.4791C58.0805 23.5207 57.3498 22.7436 56.4485 22.7436H52.3686V21.4419C52.3686 20.7241 52.9175 20.1403 53.5926 20.1403ZM67.8724 26.2147C68.7736 26.2147 69.5044 25.4376 69.5044 24.4791C69.5044 23.0046 69.5044 13.8105 69.5044 12.3303C69.5044 11.3719 68.7736 10.5948 67.8724 10.5948C66.9711 10.5948 66.2404 11.3719 66.2404 12.3303V16.6692H63.7924V12.3303C63.7924 11.3719 63.0617 10.5948 62.1604 10.5948C61.2592 10.5948 60.5285 11.3719 60.5285 12.3303V18.4047C60.5285 19.3632 61.2592 20.1403 62.1604 20.1403H66.2404V24.4791C66.2404 25.4376 66.9709 26.2147 67.8724 26.2147ZM83.8907 26.2151C84.5681 26.2151 85.2013 25.763 85.4339 25.0434L89.3608 12.8946C89.7248 11.7689 88.9369 10.5948 87.8176 10.5948H82.1524C81.2511 10.5948 80.5204 11.3719 80.5204 12.3303C80.5204 13.2888 81.2511 14.0659 82.1524 14.0659H85.531L82.3474 23.9149C81.9812 25.0464 82.7772 26.2157 83.8907 26.2151ZM75.1208 24.8954L77.9768 12.7466C78.1953 11.8166 77.6636 10.8744 76.7893 10.6419C75.9148 10.4097 75.0288 10.9749 74.8101 11.9047L71.9542 24.0535C71.7357 24.9835 72.2673 25.9257 73.1416 26.1583C74.0174 26.3906 74.9025 25.8244 75.1208 24.8954Z" fill="#031C3D"/>
</g>
<defs>
<clipPath id="clip0">
<rect width="97.86" height="104.07" fill="white"/>
</clipPath>
</defs>
</svg>
