<svg width="34" height="28" viewBox="0 0 34 28" fill="none" xmlns="http://www.w3.org/2000/svg">
<path d="M16.5716 27.6616C16.0998 27.6616 15.6449 27.5013 15.2904 27.21C13.9514 26.1117 12.6606 25.0796 11.5217 24.1692L11.5159 24.1644C8.17682 21.4951 5.29343 19.1899 3.28721 16.9191C1.04458 14.3804 0 11.9735 0 9.34397C0 6.78921 0.933822 4.43228 2.62927 2.70705C4.34494 0.961415 6.69909 0 9.25882 0C11.172 0 12.9241 0.567408 14.4663 1.68633C15.2446 2.25113 15.9501 2.94236 16.5716 3.74864C17.1934 2.94236 17.8986 2.25113 18.6772 1.68633C20.2194 0.567408 21.9715 0 23.8847 0C26.4441 0 28.7985 0.961415 30.5142 2.70705C32.2097 4.43228 33.1432 6.78921 33.1432 9.34397C33.1432 11.9735 32.0989 14.3804 29.8563 16.9188C27.85 19.1899 24.9669 21.4949 21.6284 24.1639C20.4874 25.0758 19.1946 26.1096 17.8526 27.2104C17.4984 27.5013 17.0432 27.6616 16.5716 27.6616ZM9.25882 1.8213C7.2478 1.8213 5.40039 2.57421 4.05642 3.94149C2.69248 5.32941 1.94123 7.24798 1.94123 9.34397C1.94123 11.5555 2.8174 13.5333 4.78189 15.757C6.68063 17.9063 9.50486 20.1641 12.7749 22.7784L12.7809 22.7831C13.9241 23.6971 15.2201 24.7333 16.5688 25.8396C17.9257 24.7311 19.2236 23.6933 20.3691 22.7779C23.6389 20.1636 26.4628 17.9063 28.3616 15.757C30.3258 13.5333 31.202 11.5555 31.202 9.34397C31.202 7.24798 30.4507 5.32941 29.0868 3.94149C27.7431 2.57421 25.8954 1.8213 23.8847 1.8213C22.4115 1.8213 21.0589 2.26062 19.8646 3.12691C18.8003 3.89927 18.0589 4.87563 17.6243 5.5588C17.4007 5.91011 17.0073 6.1198 16.5716 6.1198C16.1359 6.1198 15.7425 5.91011 15.5189 5.5588C15.0845 4.87563 14.3431 3.89927 13.2786 3.12691C12.0843 2.26062 10.7317 1.8213 9.25882 1.8213Z" fill="white"/>
</svg>
