<?xml version="1.0"?>
<svg xmlns="http://www.w3.org/2000/svg" viewBox="0 0 512 512" width="512px" height="512px"><g><g id="outline"><path d="M479.336,269.587l-18.084-4.52-30.306-53.036A8,8,0,0,0,424,208H368V128a8,8,0,0,0-8-8H72a8,8,0,0,0-8,8v56H48a8,8,0,0,0,0,16H64v16H24a8,8,0,0,0,0,16H64v16H48a8,8,0,0,0,0,16H64v72a7.957,7.957,0,0,0,.833,3.538.357.357,0,0,0,.012.04l16,32A8,8,0,0,0,88,376h19.35a39.984,39.984,0,0,0,73.3,0h206.7a39.984,39.984,0,0,0,73.3,0H472a8,8,0,0,0,5.657-2.343l16-16A8,8,0,0,0,496,352V290.931A21.97,21.97,0,0,0,479.336,269.587ZM400,224h19.357l22.857,40H400ZM104,248H80V232h24a8,8,0,0,0,0-16H80V200H96a8,8,0,0,0,0-16H80V136H352V328H167.974a39.918,39.918,0,0,0-47.948,0H80V264h24a8,8,0,0,0,0-16ZM92.944,360l-8-16H107.35A39.759,39.759,0,0,0,104,360ZM144,384a24,24,0,1,1,24-24A24.028,24.028,0,0,1,144,384Zm208-24H184a39.759,39.759,0,0,0-3.35-16H352Zm16,0V224h16v48a8,8,0,0,0,8,8h63.015l20.44,5.11A5.991,5.991,0,0,1,480,290.931V296H464a8,8,0,0,0,0,16h16v16H447.974A39.979,39.979,0,0,0,384,360Zm56,24a24,24,0,1,1,24-24A24.028,24.028,0,0,1,424,384Zm44.687-24H464a39.759,39.759,0,0,0-3.35-16H480v4.687Z" data-original="#000000" class="active-path" data-old_color="#000000" fill="#031C3D"/><path d="M144,192h19.056l13.533,27.066L192,265.3v19.382A19.346,19.346,0,0,0,209.315,303.9a13.978,13.978,0,0,0,25.32.105h18.73a14,14,0,1,0,2.846-16H231.789a13.978,13.978,0,0,0-19.578,0h-.892A3.323,3.323,0,0,1,208,284.681V272h72a8,8,0,0,0,7.59-5.47l16-48c.005-.016.008-.032.013-.048a7.982,7.982,0,0,0,.36-1.751c.009-.1.037-40.731.037-40.731a8,8,0,0,0-4.422-7.155l-16-8a8,8,0,0,0-7.156,0l-16,8A8,8,0,0,0,256,176H232a24,24,0,0,0-48,0v22.112l-8.845-17.69A8,8,0,0,0,168,176H144a8,8,0,0,0,0,16Zm88,32h16v32H232Zm-16,32H205.766L195.1,224H216Zm58.234,0H264V224h20.9ZM272,180.944l8-4,8,4V208H272V180.944ZM256,192v16H232V192Zm-56-16a8,8,0,0,1,16,0v32H200Z" data-original="#000000" class="active-path" data-old_color="#000000" fill="#031C3D"/><path d="M416,304a8,8,0,0,0-8-8H392a8,8,0,0,0,0,16h16A8,8,0,0,0,416,304Z" data-original="#000000" class="active-path" data-old_color="#000000" fill="#031C3D"/></g></g> </svg>
