<?xml version="1.0" encoding="UTF-8" standalone="no"?>
<!-- Created on 13 Aug 2007 by Mike Toews in Vim -->
<svg
	xmlns:svg="http://www.w3.org/2000/svg"
	xmlns="http://www.w3.org/2000/svg"
	version="1.1"
	width="210"
	height="210">
	<g id="background">
		<rect width="210" height="210" fill="yellow" />
	</g>
	<g id="polkadots" transform="scale(30,30)">
		<circle cx="0" cy="0" r="0.5" fill="red" />
		<circle cx="2" cy="0" r="0.5" fill="red" />
		<circle cx="4" cy="0" r="0.5" fill="red" />
		<circle cx="6" cy="0" r="0.5" fill="red" />
		<circle cx="1" cy="1" r="0.5" fill="red" />
		<circle cx="3" cy="1" r="0.5" fill="red" />
		<circle cx="5" cy="1" r="0.5" fill="red" />
		<circle cx="7" cy="1" r="0.5" fill="red" />
		<circle cx="0" cy="2" r="0.5" fill="red" />
		<circle cx="2" cy="2" r="0.5" fill="red" />
		<circle cx="4" cy="2" r="0.5" fill="red" />
		<circle cx="6" cy="2" r="0.5" fill="red" />
		<circle cx="1" cy="3" r="0.5" fill="red" />
		<circle cx="3" cy="3" r="0.5" fill="red" />
		<circle cx="5" cy="3" r="0.5" fill="red" />
		<circle cx="7" cy="3" r="0.5" fill="red" />
		<circle cx="0" cy="4" r="0.5" fill="red" />
		<circle cx="2" cy="4" r="0.5" fill="red" />
		<circle cx="4" cy="4" r="0.5" fill="red" />
		<circle cx="6" cy="4" r="0.5" fill="red" />
		<circle cx="1" cy="5" r="0.5" fill="red" />
		<circle cx="3" cy="5" r="0.5" fill="red" />
		<circle cx="5" cy="5" r="0.5" fill="red" />
		<circle cx="7" cy="5" r="0.5" fill="red" />
		<circle cx="0" cy="6" r="0.5" fill="red" />
		<circle cx="2" cy="6" r="0.5" fill="red" />
		<circle cx="4" cy="6" r="0.5" fill="red" />
		<circle cx="6" cy="6" r="0.5" fill="red" />
		<circle cx="1" cy="7" r="0.5" fill="red" />
		<circle cx="3" cy="7" r="0.5" fill="red" />
		<circle cx="5" cy="7" r="0.5" fill="red" />
		<circle cx="7" cy="7" r="0.5" fill="red" />
	</g>
</svg>
