<?xml version="1.0" standalone="no"?>
<!DOCTYPE svg PUBLIC "-//W3C//DTD SVG 20010904//EN"
 "http://www.w3.org/TR/2001/REC-SVG-20010904/DTD/svg10.dtd">
<svg version="1.0" xmlns="http://www.w3.org/2000/svg"
 width="85.000000pt" height="50.000000pt" viewBox="0 0 85.000000 50.000000"
 preserveAspectRatio="xMidYMid meet">
<metadata>
Created by potrace 1.16, written by Peter Selinger 2001-2019
</metadata>
<g transform="translate(0.000000,50.000000) scale(0.100000,-0.100000)"
fill="#000000" stroke="none">
<path d="M26 478 c-9 -12 -14 -24 -11 -26 2 -2 27 -6 56 -8 50 -4 53 -5 176
-124 116 -112 126 -120 142 -106 10 9 20 14 22 11 3 -2 36 27 74 65 l69 70 81
0 c72 0 84 3 103 23 12 13 22 26 22 30 0 4 -51 7 -113 7 l-112 0 -81 -74 -81
-75 -114 115 -114 114 -52 0 c-42 0 -55 -4 -67 -22z"/>
<path d="M659 490 c-196 -6 -174 2 -273 -91 -34 -32 -47 -51 -43 -63 15 -38
38 -29 105 37 l67 66 140 7 c129 6 142 8 165 30 13 13 22 23 20 22 -3 -1 -84
-5 -181 -8z"/>
<path d="M489 143 c-1 -5 -2 -15 -3 -23 -1 -10 -15 -16 -43 -18 -38 -3 -43 -1
-43 17 0 14 -6 21 -19 21 -20 0 -31 -34 -31 -101 0 -35 3 -39 25 -39 21 0 25
5 25 30 0 28 2 30 39 30 35 0 39 -3 45 -30 4 -23 11 -30 28 -30 21 0 23 5 26
55 4 69 -4 95 -29 95 -10 0 -20 -3 -20 -7z"/>
</g>
</svg>
